<svg xmlns="http://www.w3.org/2000/svg" viewBox="0 0 360 360" role="img" aria-label="CellzTech CT Bot mascot">
  <defs>
    <linearGradient id="botShell" x1="78" y1="54" x2="282" y2="304" gradientUnits="userSpaceOnUse">
      <stop stop-color="#F8FAFC"/>
      <stop offset="1" stop-color="#BFDBFE"/>
    </linearGradient>
    <linearGradient id="botBlue" x1="95" y1="82" x2="278" y2="275" gradientUnits="userSpaceOnUse">
      <stop stop-color="#2563EB"/>
      <stop offset="1" stop-color="#06B6D4"/>
    </linearGradient>
  </defs>
  <path d="M180 36v27" stroke="#67E8F9" stroke-width="9" stroke-linecap="round"/>
  <circle cx="180" cy="28" r="12" fill="#67E8F9"/>
  <rect x="86" y="68" width="188" height="194" rx="54" fill="url(#botShell)"/>
  <rect x="111" y="95" width="138" height="80" rx="30" fill="#0B1220"/>
  <circle cx="152" cy="135" r="11" fill="#67E8F9"/>
  <circle cx="208" cy="135" r="11" fill="#67E8F9"/>
  <path d="M156 159c13 12 35 12 48 0" stroke="#67E8F9" stroke-width="7" stroke-linecap="round" fill="none"/>
  <rect x="135" y="203" width="90" height="44" rx="18" fill="url(#botBlue)"/>
  <path d="M158 226h-9a13 13 0 0 1 0-26h9" stroke="white" stroke-width="7" stroke-linecap="round" fill="none"/>
  <path d="M169 200h42M190 200v46" stroke="white" stroke-width="7" stroke-linecap="round"/>
  <path d="M86 150c-26 5-42 22-44 50" stroke="#60A5FA" stroke-width="18" stroke-linecap="round"/>
  <path d="M274 150c26 5 42 22 44 50" stroke="#60A5FA" stroke-width="18" stroke-linecap="round"/>
  <circle cx="42" cy="204" r="16" fill="#06B6D4"/>
  <circle cx="318" cy="204" r="16" fill="#06B6D4"/>
  <path d="M126 262l-17 42M234 262l17 42" stroke="#BFDBFE" stroke-width="16" stroke-linecap="round"/>
  <path d="M108 306h45M207 306h45" stroke="#2563EB" stroke-width="16" stroke-linecap="round"/>
</svg>
